<?xml version="1.0" standalone="no"?><!DOCTYPE svg PUBLIC "-//W3C//DTD SVG 1.1//EN" "http://www.w3.org/Graphics/SVG/1.1/DTD/svg11.dtd"><svg t="1742614382929" class="icon" viewBox="0 0 1024 1024" version="1.1" xmlns="http://www.w3.org/2000/svg" p-id="6488" xmlns:xlink="http://www.w3.org/1999/xlink" width="200" height="200"><path d="M178.2 315.4H53.3C30.5 315.4 12 336 12 358.8v615.4h207.5V358.8c0-24.4-19-43.4-41.3-43.4zM442.7 49.7H317.8c-22.8 0-41.3 20.6-41.3 45.1v879.4H484V94.8c0-24.4-19-45.1-41.3-45.1zM706.7 540.2H582.3c-22.8 0-41.3 20.6-41.3 45.1v388.9h207V585.3c0-24.4-19-45.1-41.3-45.1zM970.7 315.4H846.3c-22.8 0-41.3 20.6-41.3 43.5v615.4h207V358.8c0-24.4-19-43.4-41.3-43.4z" fill="#1afa29" p-id="6489"></path></svg>